<svg width="16" height="110" viewBox="0 0 16 110" fill="none" xmlns="http://www.w3.org/2000/svg">
<path d="M7.29289 109.707C7.68341 110.098 8.31658 110.098 8.7071 109.707L15.0711 103.343C15.4616 102.953 15.4616 102.319 15.0711 101.929C14.6805 101.538 14.0474 101.538 13.6569 101.929L8 107.586L2.34314 101.929C1.95262 101.538 1.31945 101.538 0.928929 101.929C0.538405 102.319 0.538404 102.953 0.928929 103.343L7.29289 109.707ZM7 27L7 109L9 109L9 27L7 27Z" fill="#976646"/>
<circle cx="8" cy="18" r="2" fill="#976646"/>
<circle cx="8" cy="10" r="2" fill="#976646"/>
<circle cx="8" cy="2" r="2" fill="#976646"/>
</svg>
