<svg width="44" height="80" viewBox="0 0 44 80" fill="none" xmlns="http://www.w3.org/2000/svg">
<g opacity="0.8">
<path d="M7.28173 32.8862C9.47866 31.287 11.5857 29.1838 11.2658 27.2205C11.2658 27.2205 12.1356 30.0995 10.1211 31.5615C10.1211 31.5615 12.4555 31.6538 14.2426 30.7381C14.2426 30.7381 11.5883 32.1552 9.89372 32.4746C8.1991 32.7939 5.95723 35.3536 6.59701 35.7653C7.23679 36.177 8.34186 35.1715 8.88646 33.8917C8.88646 33.8917 9.02394 35.0343 8.33657 35.7204C8.33657 35.7204 9.93866 36.7707 11.6333 35.446C11.6333 35.446 10.671 36.7707 8.93141 36.5886C7.19184 36.4065 5.54481 36.6942 4.85744 38.2195C4.8548 38.2169 5.0848 34.4854 7.28173 32.8862Z" fill="#C3AA94"/>
<path d="M0.0855135 5.42041C0.0855135 5.42041 -0.0440284 13.3029 7.37423 17.3483C14.7899 21.3938 13.7244 27.6322 12.318 29.9149C12.318 29.9149 14.3774 24.2702 9.09 20.5019C3.80258 16.7335 -0.67852 12.4136 0.0855135 5.42041Z" fill="#C3AA94"/>
<path d="M11.9056 19.6786C11.9056 19.6786 11.5725 19.3408 11.0596 18.7603C11.813 19.4965 11.9056 19.6786 11.9056 19.6786Z" fill="#C3AA94"/>
<path d="M11.0593 18.76C10.3455 18.066 9.04478 16.8785 6.66544 14.8808C1.76399 10.7667 3.11493 2.88428 3.11493 2.88428C2.70251 5.90057 4.85449 10.6981 4.85449 10.6981C4.88622 8.63449 5.65554 6.99572 5.65554 6.99572C4.9576 11.2972 9.19547 16.6489 11.0593 18.76Z" fill="#C3AA94"/>
<path d="M14.2398 23.8612C14.2398 21.3938 14.1023 20.1588 10.6681 15.2979C7.2366 10.437 7.42695 5.69482 7.42695 5.69482C7.42695 5.69482 8.57168 11.3843 11.908 15.2979C15.2418 19.2114 14.2398 23.8612 14.2398 23.8612Z" fill="#C3AA94"/>
<path d="M11.9055 12.8938C21.3145 21.1879 15.6834 28.8646 15.6834 28.8646C18.9114 20.9821 11.9055 12.8938 11.9055 12.8938Z" fill="#C3AA94"/>
<path d="M19.5061 27.7219C18.3614 28.1785 16.4844 29.5956 16.4844 29.5956L18.4064 26.7614C18.4064 26.7614 19.0012 27.2179 20.5583 26.2573C22.1155 25.2968 21.6581 22.1433 20.1909 23.0141C18.7262 23.8823 20.5583 25.025 20.5583 25.025C17.719 24.7056 18.0865 22.9692 19.2523 22.328C20.4209 21.6894 22.023 22.1908 22.023 24.1568C22.023 26.1227 20.6509 27.2654 19.5061 27.7219Z" fill="#C3AA94"/>
<path d="M24.4498 3.09009C24.4498 3.09009 31.8205 4.55205 32.5078 11.5901C33.1952 18.6281 30.0809 21.6892 28.7538 22.7395C27.4266 23.7898 27.5641 24.3519 27.2442 25.8297C26.9243 27.3101 25.1372 29.0914 22.8953 29.5928C20.6534 30.0942 17.4017 30.7803 18.0414 31.6037C18.6812 32.427 20.6059 31.192 20.6059 31.192C20.6059 31.192 19.1862 32.3346 17.6766 32.0153C16.1671 31.696 14.7474 32.6091 14.2424 33.1131C14.2424 33.1131 15.5696 30.8727 19.4611 29.9147C23.3527 28.9542 25.9171 26.4868 25.5496 24.658C25.1821 22.8292 24.4049 23.1037 26.3268 21.6417C28.2488 20.1798 31.2706 18.9922 31.2706 13.5086C31.2706 8.02487 27.654 3.95829 24.4498 3.09009Z" fill="#C3AA94"/>
<path d="M28.6164 25.8323C28.8464 24.4442 29.7162 23.6551 31.7307 22.0691C33.7452 20.4832 33.9276 13.8779 33.9276 13.8779C33.9276 13.8779 34.2026 19.0423 33.4703 21.2352C32.738 23.4282 31.9131 24.4336 30.2661 26.6266C28.6191 28.8195 24.6799 29.9173 24.6799 29.9173C27.3818 28.8644 28.3864 27.2203 28.6164 25.8323Z" fill="#C3AA94"/>
<path d="M34.7523 14.4692C34.7523 14.4692 33.7001 4.22228 27.0618 0C27.0618 0 33.1053 3.63907 34.295 7.93524C35.4846 12.2314 34.7523 14.4692 34.7523 14.4692Z" fill="#C3AA94"/>
<path d="M32.2778 25.8324C34.0174 23.3941 36.3518 20.9135 36.6717 14.778C36.9916 8.6425 33.6949 2.12964 33.6949 2.12964C34.4272 2.95298 38.2738 7.98013 38.4112 13.981C38.5514 19.982 32.2778 25.8324 32.2778 25.8324Z" fill="#C3AA94"/>
<path d="M37.5891 22.0667C42.1204 16.2294 38.2289 4.0481 38.2289 4.0481C39.3287 5.14589 42.1654 9.76136 41.5256 14.1921C40.8858 18.6281 37.5891 22.0667 37.5891 22.0667Z" fill="#C3AA94"/>
<path d="M30.356 29.2762C40.1086 26.3522 43.4503 13.981 43.4503 13.981C43.5428 14.865 44.5501 18.7653 41.1608 23.518C37.7742 28.2707 30.356 29.2762 30.356 29.2762Z" fill="#C3AA94"/>
<path d="M18.5914 33.8466C18.5914 33.8466 17.9516 34.1659 17.7216 34.7148C17.7216 34.7148 17.0343 33.1394 20.2384 32.1683C23.4426 31.1971 26.7896 31.0124 29.3275 28.5925C29.3275 28.5925 28.6613 30.3738 25.1372 31.564C21.6132 32.7541 19.7361 32.9811 19.4612 33.712C19.1862 34.443 20.1935 35.4933 20.9258 35.0843C21.6581 34.6726 20.6059 33.8493 21.2457 33.712C21.8855 33.5748 23.625 34.6726 22.3904 35.4036C21.1532 36.1293 18.105 35.7387 18.5914 33.8466Z" fill="#C3AA94"/>
<path d="M34.66 33.1157C30.9059 32.9336 26.0521 32.2765 24.3125 32.7198C24.3125 32.7198 28.857 30.7855 32.6058 30.0994C36.3546 29.4133 42.5806 26.6714 44.0002 24.2964C44.0002 24.2964 43.3605 26.9934 39.6064 28.5926C35.8523 30.1917 33.7003 31.8833 33.7003 31.8833C33.7003 31.8833 36.997 32.9811 39.9712 31.2895C39.9712 31.2869 38.4141 33.2978 34.66 33.1157Z" fill="#C3AA94"/>
<path d="M22.6206 33.1265C22.6206 33.1265 26.2822 33.6622 26.6946 35.1268C27.107 36.5887 24.3126 37.0004 24.3126 37.0004C24.3126 37.0004 27.5168 34.9658 22.6206 33.1265Z" fill="#C3AA94"/>
<path d="M30.9983 35.0632C30.9983 35.0632 33.1556 38.2801 29.3302 38.5545C29.3302 38.5545 32.0426 35.9948 26.7367 33.5722C26.4697 33.4508 32.2805 33.8467 35.4398 36.1768C38.599 38.507 35.1305 40.7923 32.6084 40.7C32.6057 40.7 36.3545 37.0107 30.9983 35.0632Z" fill="#C3AA94"/>
<path d="M12.5002 39.8792C12.5002 39.8792 10.7897 41.2409 11.7229 43.7637C12.6562 46.2866 15.8498 46.0121 17.9489 45.4553C20.0506 44.8985 21.1531 41.4336 20.6032 38.0056C20.6032 38.0056 24.2198 47.2366 12.865 48.015L15.0619 46.8275C15.0619 46.8275 10.988 46.7827 10.713 43.7664C10.4407 40.7475 12.5002 39.8792 12.5002 39.8792Z" fill="#C3AA94"/>
<path d="M17.6583 39.1009C17.6504 38.4148 18.1104 38.2169 18.1104 38.2169C18.1104 38.2169 18.2267 38.5811 18.766 38.8951C18.766 38.8951 18.1553 38.209 18.499 37.2273C18.499 37.2273 18.7052 37.5255 19.2551 37.9134C19.2551 37.9134 18.5466 39.0798 19.8737 39.5575C19.8737 39.5575 18.6841 39.5812 18.2954 38.8713C18.2954 38.8713 17.7006 39.3516 18.158 39.8768C18.1553 39.8794 17.6662 39.787 17.6583 39.1009Z" fill="#C3AA94"/>
<path d="M15.908 35.0689C15.9166 35.0632 15.9223 35.0632 15.9223 35.0632C15.9166 35.0661 15.9137 35.0661 15.908 35.0689Z" fill="#C3AA94"/>
<path d="M12.2493 36.0846C12.2493 36.0846 12.8441 35.7178 13.4627 36.0846C14.0814 36.4488 14.7 37.2352 15.1785 37.2272C15.1785 37.2272 14.0126 35.921 15.9082 35.0686C15.7918 35.1267 14.9273 35.5858 15.2261 36.586C15.546 37.66 17.4468 38.0031 17.4468 38.0031C17.4468 38.0031 15.9372 38.5731 14.655 37.7049C13.3728 36.8367 12.9366 35.9474 12.2493 36.0846Z" fill="#C3AA94"/>
<path d="M15.7071 40.3122C15.136 40.4046 15.0197 40.1987 15.0197 40.1987C15.0197 40.1987 16.1644 39.6498 15.7282 39.6973C15.292 39.7422 14.491 39.3305 14.491 39.3305C15.7044 39.3754 16.2993 38.6919 16.2993 38.6919L16.0481 39.2619L16.4156 39.5126C16.4156 39.5126 16.2781 40.2198 15.7071 40.3122Z" fill="#C3AA94"/>
<path d="M14.9959 42.5975C14.6971 43.785 12.3416 43.6953 12.249 42.323C12.1565 40.9508 13.3938 40.8373 14.2398 40.9508C15.0857 41.0643 15.9212 40.6526 15.9212 40.6526C15.1518 41.9087 13.2801 41.4073 13.3012 42.2966C13.325 43.1912 14.9959 42.5975 14.9959 42.5975Z" fill="#C3AA94"/>
<path d="M21.5205 43.8088C21.5205 43.8088 21.0764 47.7857 17.6581 52.1716C14.2398 56.5575 11.9503 61.9752 14.8478 66.2925C14.8478 66.2925 11.4268 63.9623 13.0051 58.0669C14.5834 52.1716 20.0083 49.4984 21.5205 43.8088Z" fill="#C3AA94"/>
<path d="M14.8479 62.9329C15.3397 59.2305 18.7924 55.4463 20.0111 50.3188C20.0111 50.3188 19.7362 53.4724 17.7455 57.9269C15.7547 62.3814 15.4058 66.1524 17.0555 68.6884C17.0555 68.691 14.3562 66.6353 14.8479 62.9329Z" fill="#C3AA94"/>
<path d="M22.8028 51.9895C20.6958 56.2856 18.2715 61.1307 18.2715 61.1307C18.5914 57.9772 19.6462 57.109 21.9806 51.3509C24.315 45.5927 21.9806 38.874 21.9806 38.874C24.2674 43.9012 24.9072 47.6933 22.8028 51.9895Z" fill="#C3AA94"/>
<path d="M18.5756 69.3772C18.3113 78.7692 31.3183 75.5233 31.3183 75.5233C28.2966 79.5001 22.5729 77.7637 22.5729 77.7637C23.8551 79.7297 27.2417 79.8194 27.2417 79.8194C21.4732 80.5953 17.8566 76.6659 17.3965 70.2217C16.9392 63.7801 22.2081 55.7815 22.2081 55.7815C21.452 58.0219 18.8427 59.9853 18.5756 69.3772Z" fill="#C3AA94"/>
<path d="M27.4055 53.8684C27.3632 54.0954 27.3024 54.3117 27.2205 54.5017C27.2205 54.5017 27.2998 54.2748 27.4055 53.8684Z" fill="#C3AA94"/>
<path d="M25.23 63.0703C20.6986 61.6294 23.1705 54.6389 25.7798 49.7041C28.3892 44.7694 22.6206 38.5547 22.6206 38.5547C29.5101 43.4974 28.0085 51.5672 27.4057 53.871C27.686 52.3853 27.2207 50.3216 27.2207 50.3216C27.2207 50.3216 27.3581 51.6939 25.2987 54.4357C23.2392 57.1776 23.308 60.4683 25.2987 61.4289C27.2894 62.3894 26.7369 59.5104 26.7369 59.5104L27.7706 60.6768C29.0078 59.1013 26.7369 56.8371 26.7369 56.8371C31.5061 57.4995 29.7613 64.5111 25.23 63.0703Z" fill="#C3AA94"/>
<path d="M30.3559 46.6191C29.5099 40.6551 22.9614 38.0056 22.9614 38.0056C29.9752 38.5756 32.6057 44.4261 32.6057 44.4261C31.3288 42.0959 29.3275 41.7529 29.3275 41.7529C30.4061 43.3283 30.3559 46.6191 30.3559 46.6191Z" fill="#C3AA94"/>
<path d="M24.7486 74.9983C27.0142 75.1355 32.0955 73.217 30.7842 68.6913C29.4703 64.1681 23.2549 65.7436 23.2549 65.7436C31.4451 61.9726 34.7048 69.2402 31.6857 73.0772C28.6613 76.9168 24.7486 74.9983 24.7486 74.9983Z" fill="#C3AA94"/>
<path d="M23.8921 72.2565C26.1287 72.8054 27.7837 70.5438 27.7837 70.5438C27.5933 74.8611 19.7336 75.2728 20.0085 70.5438C20.2835 65.8149 26.3957 66.2925 26.3957 66.2925C21.0396 67.3903 24.0825 70.5438 24.0825 70.5438C22.7315 70.2008 22.6179 69.1716 22.6179 69.1716C22.6179 69.1716 21.6582 71.7076 23.8921 72.2565Z" fill="#C3AA94"/>
</g>
</svg>
