<svg width="144" height="80" viewBox="0 0 144 80" fill="none" xmlns="http://www.w3.org/2000/svg">
<g opacity="0.8">
<path d="M7.28173 32.8862C9.47866 31.287 11.5857 29.1838 11.2658 27.2205C11.2658 27.2205 12.1356 30.0995 10.1211 31.5615C10.1211 31.5615 12.4555 31.6538 14.2426 30.7381C14.2426 30.7381 11.5883 32.1552 9.89372 32.4746C8.1991 32.7939 5.95723 35.3536 6.59701 35.7653C7.23679 36.177 8.34186 35.1715 8.88646 33.8917C8.88646 33.8917 9.02394 35.0343 8.33657 35.7204C8.33657 35.7204 9.93866 36.7707 11.6333 35.446C11.6333 35.446 10.671 36.7707 8.93141 36.5886C7.19184 36.4065 5.54481 36.6942 4.85744 38.2195C4.8548 38.2169 5.0848 34.4854 7.28173 32.8862Z" fill="#C3AA94"/>
<path d="M0.0855135 5.42041C0.0855135 5.42041 -0.0440284 13.3029 7.37423 17.3483C14.7899 21.3938 13.7244 27.6322 12.318 29.9149C12.318 29.9149 14.3774 24.2702 9.09 20.5019C3.80258 16.7335 -0.67852 12.4136 0.0855135 5.42041Z" fill="#C3AA94"/>
<path d="M11.9056 19.6786C11.9056 19.6786 11.5725 19.3408 11.0596 18.7603C11.813 19.4965 11.9056 19.6786 11.9056 19.6786Z" fill="#C3AA94"/>
<path d="M11.0593 18.76C10.3455 18.066 9.04478 16.8785 6.66544 14.8808C1.76399 10.7667 3.11493 2.88428 3.11493 2.88428C2.70251 5.90057 4.85449 10.6981 4.85449 10.6981C4.88622 8.63449 5.65554 6.99572 5.65554 6.99572C4.9576 11.2972 9.19547 16.6489 11.0593 18.76Z" fill="#C3AA94"/>
<path d="M14.2398 23.8612C14.2398 21.3938 14.1023 20.1588 10.6681 15.2979C7.2366 10.437 7.42695 5.69482 7.42695 5.69482C7.42695 5.69482 8.57168 11.3843 11.908 15.2979C15.2418 19.2114 14.2398 23.8612 14.2398 23.8612Z" fill="#C3AA94"/>
<path d="M11.9055 12.8938C21.3145 21.1879 15.6834 28.8646 15.6834 28.8646C18.9114 20.9821 11.9055 12.8938 11.9055 12.8938Z" fill="#C3AA94"/>
<path d="M19.5061 27.7219C18.3614 28.1785 16.4844 29.5956 16.4844 29.5956L18.4064 26.7614C18.4064 26.7614 19.0012 27.2179 20.5583 26.2573C22.1155 25.2968 21.6581 22.1433 20.1909 23.0141C18.7262 23.8823 20.5583 25.025 20.5583 25.025C17.719 24.7056 18.0865 22.9692 19.2523 22.328C20.4209 21.6894 22.023 22.1908 22.023 24.1568C22.023 26.1227 20.6509 27.2654 19.5061 27.7219Z" fill="#C3AA94"/>
<path d="M24.4498 3.09009C24.4498 3.09009 31.8205 4.55205 32.5078 11.5901C33.1952 18.6281 30.0809 21.6892 28.7538 22.7395C27.4266 23.7898 27.5641 24.3519 27.2442 25.8297C26.9243 27.3101 25.1372 29.0914 22.8953 29.5928C20.6534 30.0942 17.4017 30.7803 18.0414 31.6037C18.6812 32.427 20.6059 31.192 20.6059 31.192C20.6059 31.192 19.1862 32.3346 17.6766 32.0153C16.1671 31.696 14.7474 32.6091 14.2424 33.1131C14.2424 33.1131 15.5696 30.8727 19.4611 29.9147C23.3527 28.9542 25.9171 26.4868 25.5496 24.658C25.1821 22.8292 24.4049 23.1037 26.3268 21.6417C28.2488 20.1798 31.2706 18.9922 31.2706 13.5086C31.2706 8.02487 27.654 3.95829 24.4498 3.09009Z" fill="#C3AA94"/>
<path d="M28.6164 25.8323C28.8464 24.4442 29.7162 23.6551 31.7307 22.0691C33.7452 20.4832 33.9276 13.8779 33.9276 13.8779C33.9276 13.8779 34.2026 19.0423 33.4703 21.2352C32.738 23.4282 31.9131 24.4336 30.2661 26.6266C28.6191 28.8195 24.6799 29.9173 24.6799 29.9173C27.3818 28.8644 28.3864 27.2203 28.6164 25.8323Z" fill="#C3AA94"/>
<path d="M34.7523 14.4692C34.7523 14.4692 33.7001 4.22228 27.0618 0C27.0618 0 33.1053 3.63907 34.295 7.93524C35.4846 12.2314 34.7523 14.4692 34.7523 14.4692Z" fill="#C3AA94"/>
<path d="M32.2778 25.8324C34.0174 23.3941 36.3518 20.9135 36.6717 14.778C36.9916 8.6425 33.6949 2.12964 33.6949 2.12964C34.4272 2.95298 38.2738 7.98013 38.4112 13.981C38.5514 19.982 32.2778 25.8324 32.2778 25.8324Z" fill="#C3AA94"/>
<path d="M37.5891 22.0667C42.1204 16.2294 38.2289 4.0481 38.2289 4.0481C39.3287 5.14589 42.1654 9.76136 41.5256 14.1921C40.8858 18.6281 37.5891 22.0667 37.5891 22.0667Z" fill="#C3AA94"/>
<path d="M30.356 29.2762C40.1086 26.3522 43.4503 13.981 43.4503 13.981C43.5428 14.865 44.5501 18.7653 41.1608 23.518C37.7742 28.2707 30.356 29.2762 30.356 29.2762Z" fill="#C3AA94"/>
<path d="M18.5914 33.8466C18.5914 33.8466 17.9516 34.1659 17.7216 34.7148C17.7216 34.7148 17.0343 33.1394 20.2384 32.1683C23.4426 31.1971 26.7896 31.0124 29.3275 28.5925C29.3275 28.5925 28.6613 30.3738 25.1372 31.564C21.6132 32.7541 19.7361 32.9811 19.4612 33.712C19.1862 34.443 20.1935 35.4933 20.9258 35.0843C21.6581 34.6726 20.6059 33.8493 21.2457 33.712C21.8855 33.5748 23.625 34.6726 22.3904 35.4036C21.1532 36.1293 18.105 35.7387 18.5914 33.8466Z" fill="#C3AA94"/>
<path d="M34.66 33.1157C30.9059 32.9336 26.0521 32.2765 24.3125 32.7198C24.3125 32.7198 28.857 30.7855 32.6058 30.0994C36.3546 29.4133 42.5806 26.6714 44.0002 24.2964C44.0002 24.2964 43.3605 26.9934 39.6064 28.5926C35.8523 30.1917 33.7003 31.8833 33.7003 31.8833C33.7003 31.8833 36.997 32.9811 39.9712 31.2895C39.9712 31.2869 38.4141 33.2978 34.66 33.1157Z" fill="#C3AA94"/>
<path d="M22.6206 33.1265C22.6206 33.1265 26.2822 33.6622 26.6946 35.1268C27.107 36.5887 24.3126 37.0004 24.3126 37.0004C24.3126 37.0004 27.5168 34.9658 22.6206 33.1265Z" fill="#C3AA94"/>
<path d="M30.9983 35.0632C30.9983 35.0632 33.1556 38.2801 29.3302 38.5545C29.3302 38.5545 32.0426 35.9948 26.7367 33.5722C26.4697 33.4508 32.2805 33.8467 35.4398 36.1768C38.599 38.507 35.1305 40.7923 32.6084 40.7C32.6057 40.7 36.3545 37.0107 30.9983 35.0632Z" fill="#C3AA94"/>
<path d="M12.5002 39.8792C12.5002 39.8792 10.7897 41.2409 11.7229 43.7637C12.6562 46.2866 15.8498 46.0121 17.9489 45.4553C20.0506 44.8985 21.1531 41.4336 20.6032 38.0056C20.6032 38.0056 24.2198 47.2366 12.865 48.015L15.0619 46.8275C15.0619 46.8275 10.988 46.7827 10.713 43.7664C10.4407 40.7475 12.5002 39.8792 12.5002 39.8792Z" fill="#C3AA94"/>
<path d="M17.6583 39.1009C17.6504 38.4148 18.1104 38.2169 18.1104 38.2169C18.1104 38.2169 18.2267 38.5811 18.766 38.8951C18.766 38.8951 18.1553 38.209 18.499 37.2273C18.499 37.2273 18.7052 37.5255 19.2551 37.9134C19.2551 37.9134 18.5466 39.0798 19.8737 39.5575C19.8737 39.5575 18.6841 39.5812 18.2954 38.8713C18.2954 38.8713 17.7006 39.3516 18.158 39.8768C18.1553 39.8794 17.6662 39.787 17.6583 39.1009Z" fill="#C3AA94"/>
<path d="M15.908 35.0689C15.9166 35.0632 15.9223 35.0632 15.9223 35.0632C15.9166 35.0661 15.9137 35.0661 15.908 35.0689Z" fill="#C3AA94"/>
<path d="M12.2493 36.0846C12.2493 36.0846 12.8441 35.7178 13.4627 36.0846C14.0814 36.4488 14.7 37.2352 15.1785 37.2272C15.1785 37.2272 14.0126 35.921 15.9082 35.0686C15.7918 35.1267 14.9273 35.5858 15.2261 36.586C15.546 37.66 17.4468 38.0031 17.4468 38.0031C17.4468 38.0031 15.9372 38.5731 14.655 37.7049C13.3728 36.8367 12.9366 35.9474 12.2493 36.0846Z" fill="#C3AA94"/>
<path d="M15.7071 40.3122C15.136 40.4046 15.0197 40.1987 15.0197 40.1987C15.0197 40.1987 16.1644 39.6498 15.7282 39.6973C15.292 39.7422 14.491 39.3305 14.491 39.3305C15.7044 39.3754 16.2993 38.6919 16.2993 38.6919L16.0481 39.2619L16.4156 39.5126C16.4156 39.5126 16.2781 40.2198 15.7071 40.3122Z" fill="#C3AA94"/>
<path d="M14.9959 42.5975C14.6971 43.785 12.3416 43.6953 12.249 42.323C12.1565 40.9508 13.3938 40.8373 14.2398 40.9508C15.0857 41.0643 15.9212 40.6526 15.9212 40.6526C15.1518 41.9087 13.2801 41.4073 13.3012 42.2966C13.325 43.1912 14.9959 42.5975 14.9959 42.5975Z" fill="#C3AA94"/>
<path d="M21.5205 43.8088C21.5205 43.8088 21.0764 47.7857 17.6581 52.1716C14.2398 56.5575 11.9503 61.9752 14.8478 66.2925C14.8478 66.2925 11.4268 63.9623 13.0051 58.0669C14.5834 52.1716 20.0083 49.4984 21.5205 43.8088Z" fill="#C3AA94"/>
<path d="M14.8479 62.9329C15.3397 59.2305 18.7924 55.4463 20.0111 50.3188C20.0111 50.3188 19.7362 53.4724 17.7455 57.9269C15.7547 62.3814 15.4058 66.1524 17.0555 68.6884C17.0555 68.691 14.3562 66.6353 14.8479 62.9329Z" fill="#C3AA94"/>
<path d="M22.8028 51.9895C20.6958 56.2856 18.2715 61.1307 18.2715 61.1307C18.5914 57.9772 19.6462 57.109 21.9806 51.3509C24.315 45.5927 21.9806 38.874 21.9806 38.874C24.2674 43.9012 24.9072 47.6933 22.8028 51.9895Z" fill="#C3AA94"/>
<path d="M18.5756 69.3772C18.3113 78.7692 31.3183 75.5233 31.3183 75.5233C28.2966 79.5001 22.5729 77.7637 22.5729 77.7637C23.8551 79.7297 27.2417 79.8194 27.2417 79.8194C21.4732 80.5953 17.8566 76.6659 17.3965 70.2217C16.9392 63.7801 22.2081 55.7815 22.2081 55.7815C21.452 58.0219 18.8427 59.9853 18.5756 69.3772Z" fill="#C3AA94"/>
<path d="M27.4055 53.8684C27.3632 54.0954 27.3024 54.3117 27.2205 54.5017C27.2205 54.5017 27.2998 54.2748 27.4055 53.8684Z" fill="#C3AA94"/>
<path d="M25.23 63.0703C20.6986 61.6294 23.1705 54.6389 25.7798 49.7041C28.3892 44.7694 22.6206 38.5547 22.6206 38.5547C29.5101 43.4974 28.0085 51.5672 27.4057 53.871C27.686 52.3853 27.2207 50.3216 27.2207 50.3216C27.2207 50.3216 27.3581 51.6939 25.2987 54.4357C23.2392 57.1776 23.308 60.4683 25.2987 61.4289C27.2894 62.3894 26.7369 59.5104 26.7369 59.5104L27.7706 60.6768C29.0078 59.1013 26.7369 56.8371 26.7369 56.8371C31.5061 57.4995 29.7613 64.5111 25.23 63.0703Z" fill="#C3AA94"/>
<path d="M30.3559 46.6191C29.5099 40.6551 22.9614 38.0056 22.9614 38.0056C29.9752 38.5756 32.6057 44.4261 32.6057 44.4261C31.3288 42.0959 29.3275 41.7529 29.3275 41.7529C30.4061 43.3283 30.3559 46.6191 30.3559 46.6191Z" fill="#C3AA94"/>
<path d="M24.7486 74.9983C27.0142 75.1355 32.0955 73.217 30.7842 68.6913C29.4703 64.1681 23.2549 65.7436 23.2549 65.7436C31.4451 61.9726 34.7048 69.2402 31.6857 73.0772C28.6613 76.9168 24.7486 74.9983 24.7486 74.9983Z" fill="#C3AA94"/>
<path d="M23.8921 72.2565C26.1287 72.8054 27.7837 70.5438 27.7837 70.5438C27.5933 74.8611 19.7336 75.2728 20.0085 70.5438C20.2835 65.8149 26.3957 66.2925 26.3957 66.2925C21.0396 67.3903 24.0825 70.5438 24.0825 70.5438C22.7315 70.2008 22.6179 69.1716 22.6179 69.1716C22.6179 69.1716 21.6582 71.7076 23.8921 72.2565Z" fill="#C3AA94"/>
</g>
<path d="M67.416 45.8613L67.2207 46.6035C67.123 46.7663 67.0026 46.9681 66.8594 47.209C66.7227 47.4434 66.5632 47.7201 66.3809 48.0391C66.0293 48.332 65.6484 48.6445 65.2383 48.9766C65.1406 49.0286 64.6556 49.2044 63.7832 49.5039H60.4238V52.6777H62.3574V53H57.4648V52.6777H59.3984V49.5039H56.0391C55.1341 49.1914 54.6491 49.0156 54.584 48.9766L53.4414 48.0391C53.3372 47.8763 53.2168 47.6777 53.0801 47.4434C52.9434 47.2025 52.7839 46.9225 52.6016 46.6035C52.582 46.5319 52.556 46.4375 52.5234 46.3203C52.4909 46.1966 52.4486 46.0436 52.3965 45.8613V43.7227C52.403 43.7096 52.4128 43.6836 52.4258 43.6445C52.4388 43.6055 52.4551 43.5501 52.4746 43.4785L52.6211 42.9805C52.7122 42.8177 52.8262 42.6159 52.9629 42.375C53.0996 42.1341 53.2591 41.8542 53.4414 41.5352C53.5586 41.431 53.6921 41.3203 53.8418 41.2031C53.9915 41.0794 54.1576 40.946 54.3398 40.8027L56.0195 40.0801H59.3984V38.3027H57.4648V37.9805H62.3574V38.3027H60.4238V40.0801H63.8027C64.2324 40.2559 64.7923 40.4967 65.4824 40.8027L66.3809 41.5352C66.4785 41.6979 66.5957 41.8997 66.7324 42.1406C66.8691 42.375 67.0254 42.6549 67.2012 42.9805L67.3477 43.4785C67.3607 43.5306 67.3737 43.5762 67.3867 43.6152C67.3997 43.6543 67.4095 43.6901 67.416 43.7227V45.8613ZM66.4004 44.4648L66.1953 43.0977L65.2383 41.7598C65.2253 41.7467 65.1927 41.724 65.1406 41.6914C65.0951 41.6523 65.0332 41.6003 64.9551 41.5352L64.3789 41.0762L63.2168 40.4023H60.4238V49.1816H63.3047C64.0273 48.7454 64.6979 48.293 65.3164 47.8242C65.4336 47.6354 65.5573 47.4303 65.6875 47.209C65.8177 46.9876 65.9544 46.7435 66.0977 46.4766C66.2083 46.1315 66.3092 45.679 66.4004 45.1191V44.4648ZM59.3984 49.1816V40.4023H56.5957C56.3223 40.5326 56.0423 40.6921 55.7559 40.8809C55.4759 41.0697 55.1797 41.2878 54.8672 41.5352C54.8411 41.5547 54.8053 41.584 54.7598 41.623C54.7142 41.6621 54.6556 41.7077 54.584 41.7598L53.6172 43.0977C53.5521 43.4427 53.5033 43.7845 53.4707 44.123C53.4382 44.4551 53.4219 44.7871 53.4219 45.1191C53.4284 45.1452 53.4382 45.1973 53.4512 45.2754C53.4707 45.347 53.4935 45.4447 53.5195 45.5684L53.7246 46.4766C53.7832 46.6719 54.0404 47.1211 54.4961 47.8242C54.8086 48.0586 55.1309 48.2897 55.4629 48.5176C55.7949 48.7389 56.1465 48.9603 56.5176 49.1816H59.3984ZM80.3457 53H68.9883V52.6777H70.9219V38.3027H68.9883V37.9805H80.3457V42.3359L80.0234 42.3555L79.3496 38.3027H71.9473V44.9824H75.8242V42.3359H76.1465V47.9414H75.8242V45.3047H71.9473V52.6777H79.3496L80.0234 48.6152L80.3457 48.6445V53ZM96.6152 53H91.7227V52.6777H93.6562V45.3047H85.5801V52.6777H87.5234V53H82.6211V52.6777H84.5547V38.3027H82.6211V37.9805H87.5234V38.3027H85.5801V44.9824H93.6562V38.3027H91.7227V37.9805H96.6152V38.3027H94.6816V52.6777H96.6152V53ZM113.041 53H108.148V52.6777H110.082V39.3574L102.006 51.4766V52.6777H103.949V53H99.0469V52.6777H100.98V38.3027H99.0469V37.9805H103.949V38.3027H102.006V50.2168L109.945 38.3027H108.148V37.9805H113.041V38.3027H111.107V52.6777H113.041V53ZM128.773 53H124.574V52.6777H126.371L121.049 44.6992L118.432 47.2969V52.6777H120.375V53H115.473V52.6777H117.406V38.3027H115.473V37.9805H120.375V38.3027H118.432V46.8574L126.986 38.3027H124.574V37.9805H128.773V38.3027H127.426L121.693 44.0352L127.445 52.6777H128.773V53ZM141.85 43.3223L140.854 40.3242L139.516 38.9766L137.475 38.3027H136.137C135.707 38.5111 135.258 38.7357 134.789 38.9766L133.432 40.3438L132.729 41.7012C132.715 41.7402 132.689 41.8184 132.65 41.9355C132.618 42.0462 132.569 42.196 132.504 42.3848L132.055 43.7617V47.2188L132.504 48.5957C132.523 48.6608 132.553 48.7487 132.592 48.8594C132.631 48.9701 132.676 49.11 132.729 49.2793C132.735 49.2988 132.969 49.7513 133.432 50.6367L134.789 52.0039C135.186 52.2122 135.635 52.4368 136.137 52.6777H137.475C137.579 52.6452 137.797 52.5736 138.129 52.4629C138.467 52.3457 138.93 52.1927 139.516 52.0039C139.9 51.6328 140.346 51.1771 140.854 50.6367L141.557 49.2598L141.83 49.416L141.137 50.8418L139.672 52.2773L137.514 53H136.068C135.964 52.9674 135.733 52.8926 135.375 52.7754C135.017 52.6517 134.529 52.4857 133.91 52.2773L132.455 50.8418C132.442 50.8158 132.416 50.7637 132.377 50.6855C132.338 50.6009 132.286 50.4935 132.221 50.3633L131.752 49.3965L131.273 47.9707C131.26 47.9382 131.241 47.8926 131.215 47.834C131.189 47.7754 131.156 47.7038 131.117 47.6191C131.059 47.4954 131.029 47.375 131.029 47.2578V43.7227C131.029 43.612 131.059 43.4915 131.117 43.3613C131.163 43.2702 131.195 43.1953 131.215 43.1367C131.241 43.0781 131.26 43.0358 131.273 43.0098L131.752 41.584L132.221 40.6172C132.253 40.5195 132.331 40.36 132.455 40.1387L133.91 38.7031L136.068 37.9805H137.514L139.672 38.7031L140.932 39.9434L141.85 37.1602V43.3223Z" fill="#976646"/>
<path d="M67.416 45.8613L67.6094 45.9122L67.616 45.8872V45.8613H67.416ZM67.2207 46.6035L67.3922 46.7064L67.4069 46.682L67.4141 46.6544L67.2207 46.6035ZM66.8594 47.209L66.6875 47.1068L66.6866 47.1082L66.8594 47.209ZM66.3809 48.0391L66.5089 48.1927L66.5366 48.1696L66.5545 48.1383L66.3809 48.0391ZM65.2383 48.9766L65.3324 49.153L65.3493 49.144L65.3641 49.132L65.2383 48.9766ZM63.7832 49.5039V49.7039H63.8166L63.8481 49.6931L63.7832 49.5039ZM60.4238 49.5039V49.3039H60.2238V49.5039H60.4238ZM60.4238 52.6777H60.2238V52.8777H60.4238V52.6777ZM62.3574 52.6777H62.5574V52.4777H62.3574V52.6777ZM62.3574 53V53.2H62.5574V53H62.3574ZM57.4648 53H57.2648V53.2H57.4648V53ZM57.4648 52.6777V52.4777H57.2648V52.6777H57.4648ZM59.3984 52.6777V52.8777H59.5984V52.6777H59.3984ZM59.3984 49.5039H59.5984V49.3039H59.3984V49.5039ZM56.0391 49.5039L55.9738 49.693L56.0055 49.7039H56.0391V49.5039ZM54.584 48.9766L54.4571 49.1312L54.4685 49.1405L54.4811 49.1481L54.584 48.9766ZM53.4414 48.0391L53.273 48.1469L53.29 48.1736L53.3145 48.1937L53.4414 48.0391ZM53.0801 47.4434L52.9061 47.5421L52.9073 47.5441L53.0801 47.4434ZM52.6016 46.6035L52.4086 46.6561L52.4153 46.6807L52.4279 46.7027L52.6016 46.6035ZM52.5234 46.3203L52.33 46.3712L52.3307 46.3738L52.5234 46.3203ZM52.3965 45.8613H52.1965V45.8893L52.2042 45.9163L52.3965 45.8613ZM52.3965 43.7227L52.2176 43.6332L52.1965 43.6754V43.7227H52.3965ZM52.4746 43.4785L52.2827 43.4221L52.2817 43.4259L52.4746 43.4785ZM52.6211 42.9805L52.4466 42.8827L52.4356 42.9024L52.4292 42.924L52.6211 42.9805ZM53.4414 41.5352L53.3085 41.3857L53.284 41.4075L53.2678 41.4359L53.4414 41.5352ZM53.8418 41.2031L53.9651 41.3607L53.9692 41.3573L53.8418 41.2031ZM54.3398 40.8027L54.2608 40.619L54.2368 40.6293L54.2163 40.6455L54.3398 40.8027ZM56.0195 40.0801V39.8801H55.9783L55.9405 39.8964L56.0195 40.0801ZM59.3984 40.0801V40.2801H59.5984V40.0801H59.3984ZM59.3984 38.3027H59.5984V38.1027H59.3984V38.3027ZM57.4648 38.3027H57.2648V38.5027H57.4648V38.3027ZM57.4648 37.9805V37.7805H57.2648V37.9805H57.4648ZM62.3574 37.9805H62.5574V37.7805H62.3574V37.9805ZM62.3574 38.3027V38.5027H62.5574V38.3027H62.3574ZM60.4238 38.3027V38.1027H60.2238V38.3027H60.4238ZM60.4238 40.0801H60.2238V40.2801H60.4238V40.0801ZM63.8027 40.0801L63.8785 39.895L63.8421 39.8801H63.8027V40.0801ZM65.4824 40.8027L65.6088 40.6477L65.588 40.6308L65.5635 40.6199L65.4824 40.8027ZM66.3809 41.5352L66.5524 41.4323L66.5344 41.4023L66.5072 41.3801L66.3809 41.5352ZM66.7324 42.1406L66.5585 42.2394L66.5597 42.2414L66.7324 42.1406ZM67.2012 42.9805L67.393 42.924L67.3871 42.9039L67.3772 42.8854L67.2012 42.9805ZM67.3477 43.4785L67.5418 43.43L67.5395 43.4221L67.3477 43.4785ZM67.416 43.7227H67.616V43.7029L67.6121 43.6834L67.416 43.7227ZM66.4004 44.4648H66.6004V44.4499L66.5982 44.4352L66.4004 44.4648ZM66.1953 43.0977L66.3931 43.068L66.386 43.0204L66.358 42.9813L66.1953 43.0977ZM65.2383 41.7598L65.4009 41.6434L65.3914 41.63L65.3797 41.6183L65.2383 41.7598ZM65.1406 41.6914L65.0105 41.8433L65.0219 41.853L65.0346 41.861L65.1406 41.6914ZM64.9551 41.5352L65.0831 41.3815L65.0797 41.3787L64.9551 41.5352ZM64.3789 41.0762L64.5035 40.9197L64.492 40.9106L64.4792 40.9032L64.3789 41.0762ZM63.2168 40.4023L63.3171 40.2293L63.2706 40.2023H63.2168V40.4023ZM60.4238 40.4023V40.2023H60.2238V40.4023H60.4238ZM60.4238 49.1816H60.2238V49.3816H60.4238V49.1816ZM63.3047 49.1816V49.3816H63.3604L63.408 49.3529L63.3047 49.1816ZM65.3164 47.8242L65.4372 47.9836L65.4668 47.9612L65.4863 47.9297L65.3164 47.8242ZM66.0977 46.4766L66.2739 46.5711L66.2825 46.555L66.2881 46.5376L66.0977 46.4766ZM66.4004 45.1191L66.5978 45.1513L66.6004 45.1353V45.1191H66.4004ZM59.3984 49.1816V49.3816H59.5984V49.1816H59.3984ZM59.3984 40.4023H59.5984V40.2023H59.3984V40.4023ZM56.5957 40.4023V40.2023H56.5505L56.5097 40.2218L56.5957 40.4023ZM55.7559 40.8809L55.6458 40.7139L55.644 40.715L55.7559 40.8809ZM54.8672 41.5352L54.9872 41.6952L54.9913 41.692L54.8672 41.5352ZM54.584 41.7598L54.4664 41.598L54.4406 41.6168L54.4219 41.6426L54.584 41.7598ZM53.6172 43.0977L53.4551 42.9805L53.4289 43.0167L53.4207 43.0606L53.6172 43.0977ZM53.4707 44.123L53.6697 44.1426L53.6698 44.1422L53.4707 44.123ZM53.4219 45.1191H53.2219V45.1438L53.2278 45.1676L53.4219 45.1191ZM53.4512 45.2754L53.2539 45.3083L53.2556 45.3183L53.2582 45.328L53.4512 45.2754ZM53.5195 45.5684L53.3238 45.6096L53.3244 45.6124L53.5195 45.5684ZM53.7246 46.4766L53.5291 46.5207L53.533 46.534L53.7246 46.4766ZM54.4961 47.8242L54.3283 47.933L54.3476 47.9629L54.3761 47.9842L54.4961 47.8242ZM55.4629 48.5176L55.3497 48.6825L55.352 48.684L55.4629 48.5176ZM56.5176 49.1816L56.4151 49.3534L56.4625 49.3816H56.5176V49.1816ZM67.2226 45.8104L67.0273 46.5526L67.4141 46.6544L67.6094 45.9122L67.2226 45.8104ZM67.0492 46.5006C66.9514 46.6637 66.8308 46.8658 66.6875 47.1068L67.0313 47.3112C67.1744 47.0704 67.2947 46.8689 67.3922 46.7064L67.0492 46.5006ZM66.6866 47.1082C66.5495 47.3432 66.3897 47.6205 66.2072 47.9398L66.5545 48.1383C66.7366 47.8196 66.8958 47.5435 67.0321 47.3098L66.6866 47.1082ZM66.2528 47.8854C65.9021 48.1777 65.522 48.4896 65.1124 48.8211L65.3641 49.132C65.7749 48.7995 66.1565 48.4864 66.5089 48.1927L66.2528 47.8854ZM65.1442 48.8001C65.1111 48.8177 64.982 48.8692 64.7331 48.9594C64.4922 49.0467 64.1541 49.1651 63.7183 49.3147L63.8481 49.6931C64.2847 49.5432 64.6253 49.424 64.8694 49.3355C65.1055 49.2499 65.2678 49.1875 65.3324 49.153L65.1442 48.8001ZM63.7832 49.3039H60.4238V49.7039H63.7832V49.3039ZM60.2238 49.5039V52.6777H60.6238V49.5039H60.2238ZM60.4238 52.8777H62.3574V52.4777H60.4238V52.8777ZM62.1574 52.6777V53H62.5574V52.6777H62.1574ZM62.3574 52.8H57.4648V53.2H62.3574V52.8ZM57.6648 53V52.6777H57.2648V53H57.6648ZM57.4648 52.8777H59.3984V52.4777H57.4648V52.8777ZM59.5984 52.6777V49.5039H59.1984V52.6777H59.5984ZM59.3984 49.3039H56.0391V49.7039H59.3984V49.3039ZM56.1043 49.3149C55.6522 49.1587 55.3058 49.037 55.0647 48.9497C54.9441 48.9059 54.8508 48.8712 54.7843 48.8452C54.7099 48.8162 54.6855 48.8042 54.6869 48.8051L54.4811 49.1481C54.515 49.1684 54.5756 49.1931 54.6388 49.2178C54.7098 49.2455 54.8066 49.2816 54.9284 49.3257C55.1724 49.4141 55.521 49.5366 55.9738 49.693L56.1043 49.3149ZM54.7108 48.8219L53.5683 47.8844L53.3145 48.1937L54.4571 49.1312L54.7108 48.8219ZM53.6099 47.9313C53.5076 47.7715 53.3887 47.5755 53.2528 47.3426L52.9073 47.5441C53.0449 47.78 53.1668 47.9811 53.273 48.1469L53.6099 47.9313ZM53.254 47.3446C53.1172 47.1035 52.9576 46.8234 52.7752 46.5043L52.4279 46.7027C52.6101 47.0216 52.7695 47.3014 52.9061 47.5421L53.254 47.3446ZM52.7945 46.5509C52.7749 46.4788 52.7487 46.3841 52.7161 46.2668L52.3307 46.3738C52.3632 46.4909 52.3892 46.585 52.4086 46.6561L52.7945 46.5509ZM52.7169 46.2694C52.6838 46.1439 52.6411 45.9894 52.5888 45.8064L52.2042 45.9163C52.256 46.0978 52.298 46.2493 52.33 46.3712L52.7169 46.2694ZM52.5965 45.8613V43.7227H52.1965V45.8613H52.5965ZM52.5754 43.8121C52.5892 43.7844 52.6031 43.7452 52.6155 43.7078L52.236 43.5813C52.23 43.5995 52.2251 43.6132 52.2214 43.6231C52.2172 43.6344 52.2161 43.6363 52.2176 43.6332L52.5754 43.8121ZM52.6155 43.7078C52.6303 43.6635 52.6477 43.604 52.6676 43.5311L52.2817 43.4259C52.2625 43.4963 52.2473 43.5475 52.236 43.5813L52.6155 43.7078ZM52.6665 43.5349L52.813 43.0369L52.4292 42.924L52.2827 43.4221L52.6665 43.5349ZM52.7956 43.0782C52.8865 42.9159 53.0002 42.7144 53.1368 42.4737L52.789 42.2763C52.6521 42.5174 52.538 42.7195 52.4466 42.8827L52.7956 43.0782ZM53.1368 42.4737C53.2734 42.233 53.4328 41.9533 53.6151 41.6344L53.2678 41.4359C53.0854 41.7551 52.9258 42.0352 52.789 42.2763L53.1368 42.4737ZM53.5743 41.6846C53.6878 41.5838 53.8179 41.4758 53.9651 41.3606L53.7185 41.0456C53.5662 41.1649 53.4294 41.2782 53.3085 41.3857L53.5743 41.6846ZM53.9692 41.3573C54.1174 41.2348 54.2822 41.1024 54.4634 40.96L54.2163 40.6455C54.0329 40.7895 53.8656 40.924 53.7144 41.0489L53.9692 41.3573ZM54.4189 40.9865L56.0986 40.2638L55.9405 39.8964L54.2608 40.619L54.4189 40.9865ZM56.0195 40.2801H59.3984V39.8801H56.0195V40.2801ZM59.5984 40.0801V38.3027H59.1984V40.0801H59.5984ZM59.3984 38.1027H57.4648V38.5027H59.3984V38.1027ZM57.6648 38.3027V37.9805H57.2648V38.3027H57.6648ZM57.4648 38.1805H62.3574V37.7805H57.4648V38.1805ZM62.1574 37.9805V38.3027H62.5574V37.9805H62.1574ZM62.3574 38.1027H60.4238V38.5027H62.3574V38.1027ZM60.2238 38.3027V40.0801H60.6238V38.3027H60.2238ZM60.4238 40.2801H63.8027V39.8801H60.4238V40.2801ZM63.727 40.2652C64.1542 40.4399 64.7121 40.6799 65.4014 40.9856L65.5635 40.6199C64.8726 40.3135 64.3107 40.0718 63.8785 39.895L63.727 40.2652ZM65.356 40.9578L66.2545 41.6902L66.5072 41.3801L65.6088 40.6477L65.356 40.9578ZM66.2094 41.6381C66.3059 41.799 66.4222 41.9993 66.5585 42.2393L66.9064 42.0419C66.7692 41.8002 66.6511 41.5969 66.5524 41.4323L66.2094 41.6381ZM66.5597 42.2414C66.695 42.4733 66.8501 42.7513 67.0252 43.0755L67.3772 42.8854C67.2007 42.5586 67.0433 42.2767 66.9052 42.0399L66.5597 42.2414ZM67.0093 43.0369L67.1558 43.5349L67.5395 43.4221L67.393 42.924L67.0093 43.0369ZM67.1536 43.527C67.1675 43.5827 67.1819 43.6334 67.197 43.6785L67.5765 43.552C67.5655 43.519 67.5538 43.4785 67.5417 43.43L67.1536 43.527ZM67.197 43.6785C67.208 43.7115 67.2153 43.7391 67.2199 43.7619L67.6121 43.6834C67.6037 43.6411 67.5915 43.5971 67.5765 43.552L67.197 43.6785ZM67.216 43.7227V45.8613H67.616V43.7227H67.216ZM66.5982 44.4352L66.3931 43.068L65.9975 43.1273L66.2026 44.4945L66.5982 44.4352ZM66.358 42.9813L65.4009 41.6434L65.0756 41.8761L66.0326 43.214L66.358 42.9813ZM65.3797 41.6183C65.3475 41.5861 65.2939 41.5513 65.2466 41.5218L65.0346 41.861C65.0591 41.8763 65.0771 41.8881 65.0894 41.8968C65.0955 41.9011 65.0993 41.9039 65.1013 41.9054C65.1038 41.9074 65.1015 41.9058 65.0969 41.9012L65.3797 41.6183ZM65.2708 41.5396C65.2242 41.4996 65.1615 41.4469 65.0831 41.3815L64.827 41.6888C64.9049 41.7537 64.9659 41.8051 65.0105 41.8433L65.2708 41.5396ZM65.0797 41.3787L64.5035 40.9197L64.2543 41.2326L64.8305 41.6916L65.0797 41.3787ZM64.4792 40.9032L63.3171 40.2293L63.1165 40.5754L64.2786 41.2492L64.4792 40.9032ZM63.2168 40.2023H60.4238V40.6023H63.2168V40.2023ZM60.2238 40.4023V49.1816H60.6238V40.4023H60.2238ZM60.4238 49.3816H63.3047V48.9816H60.4238V49.3816ZM63.408 49.3529C64.1362 48.9133 64.8127 48.457 65.4372 47.9836L65.1956 47.6648C64.5832 48.129 63.9185 48.5775 63.2013 49.0104L63.408 49.3529ZM65.4863 47.9297C65.6045 47.7394 65.729 47.5329 65.8599 47.3104L65.5151 47.1076C65.3856 47.3278 65.2627 47.5315 65.1465 47.7187L65.4863 47.9297ZM65.8599 47.3104C65.9916 47.0864 66.1296 46.84 66.2739 46.5711L65.9214 46.382C65.7792 46.647 65.6438 46.8888 65.5151 47.1076L65.8599 47.3104ZM66.2881 46.5376C66.403 46.1794 66.5058 45.7162 66.5978 45.1513L66.203 45.087C66.1127 45.6419 66.0137 46.0836 65.9072 46.4155L66.2881 46.5376ZM66.6004 45.1191V44.4648H66.2004V45.1191H66.6004ZM59.5984 49.1816V40.4023H59.1984V49.1816H59.5984ZM59.3984 40.2023H56.5957V40.6023H59.3984V40.2023ZM56.5097 40.2218C56.2269 40.3564 55.939 40.5206 55.6458 40.7139L55.8659 41.0479C56.1457 40.8635 56.4176 40.7087 56.6817 40.5829L56.5097 40.2218ZM55.644 40.715C55.3592 40.9071 55.0588 41.1283 54.743 41.3783L54.9913 41.692C55.3005 41.4472 55.5926 41.2322 55.8677 41.0467L55.644 40.715ZM54.7472 41.3752C54.7159 41.3986 54.6762 41.4312 54.6296 41.4712L54.8899 41.7749C54.9344 41.7367 54.9664 41.7108 54.9872 41.6952L54.7472 41.3752ZM54.6296 41.4712C54.5895 41.5056 54.5355 41.5477 54.4664 41.598L54.7016 41.9215C54.7757 41.8676 54.8389 41.8186 54.8899 41.7749L54.6296 41.4712ZM54.4219 41.6426L53.4551 42.9805L53.7793 43.2148L54.7461 41.8769L54.4219 41.6426ZM53.4207 43.0606C53.3545 43.4114 53.3048 43.7592 53.2716 44.1039L53.6698 44.1422C53.7017 43.8099 53.7497 43.474 53.8137 43.1347L53.4207 43.0606ZM53.2717 44.1035C53.2385 44.442 53.2219 44.7806 53.2219 45.1191H53.6219C53.6219 44.7937 53.6378 44.4681 53.6697 44.1426L53.2717 44.1035ZM53.2278 45.1676C53.2321 45.1847 53.2407 45.2289 53.2539 45.3083L53.6485 45.2425C53.6356 45.1656 53.6247 45.1057 53.6159 45.0706L53.2278 45.1676ZM53.2582 45.328C53.2763 45.3941 53.2981 45.4874 53.3238 45.6096L53.7152 45.5272C53.6889 45.4019 53.6652 45.2999 53.6441 45.2228L53.2582 45.328ZM53.3244 45.6124L53.5295 46.5206L53.9197 46.4325L53.7146 45.5243L53.3244 45.6124ZM53.533 46.534C53.5697 46.6563 53.6598 46.8356 53.7879 47.0593C53.919 47.2885 54.0995 47.58 54.3283 47.933L54.6639 47.7154C54.437 47.3653 54.261 47.0807 54.135 46.8606C54.0059 46.6351 53.9381 46.4921 53.9162 46.4191L53.533 46.534ZM54.3761 47.9842C54.6909 48.2203 55.0155 48.4531 55.3497 48.6825L55.5761 48.3527C55.2463 48.1263 54.9263 47.8969 54.6161 47.6642L54.3761 47.9842ZM55.352 48.684C55.687 48.9073 56.0414 49.1305 56.4151 49.3534L56.62 49.0099C56.2516 48.7901 55.9029 48.5705 55.5738 48.3512L55.352 48.684ZM56.5176 49.3816H59.3984V48.9816H56.5176V49.3816ZM80.3457 53V53.2H80.5457V53H80.3457ZM68.9883 53H68.7883V53.2H68.9883V53ZM68.9883 52.6777V52.4777H68.7883V52.6777H68.9883ZM70.9219 52.6777V52.8777H71.1219V52.6777H70.9219ZM70.9219 38.3027H71.1219V38.1027H70.9219V38.3027ZM68.9883 38.3027H68.7883V38.5027H68.9883V38.3027ZM68.9883 37.9805V37.7805H68.7883V37.9805H68.9883ZM80.3457 37.9805H80.5457V37.7805H80.3457V37.9805ZM80.3457 42.3359L80.3578 42.5356L80.5457 42.5242V42.3359H80.3457ZM80.0234 42.3555L79.8261 42.3883L79.8557 42.566L80.0355 42.5551L80.0234 42.3555ZM79.3496 38.3027L79.5469 38.2699L79.5191 38.1027H79.3496V38.3027ZM71.9473 38.3027V38.1027H71.7473V38.3027H71.9473ZM71.9473 44.9824H71.7473V45.1824H71.9473V44.9824ZM75.8242 44.9824V45.1824H76.0242V44.9824H75.8242ZM75.8242 42.3359V42.1359H75.6242V42.3359H75.8242ZM76.1465 42.3359H76.3465V42.1359H76.1465V42.3359ZM76.1465 47.9414V48.1414H76.3465V47.9414H76.1465ZM75.8242 47.9414H75.6242V48.1414H75.8242V47.9414ZM75.8242 45.3047H76.0242V45.1047H75.8242V45.3047ZM71.9473 45.3047V45.1047H71.7473V45.3047H71.9473ZM71.9473 52.6777H71.7473V52.8777H71.9473V52.6777ZM79.3496 52.6777V52.8777H79.5192L79.5469 52.7105L79.3496 52.6777ZM80.0234 48.6152L80.0415 48.4161L79.8565 48.3992L79.8261 48.5825L80.0234 48.6152ZM80.3457 48.6445H80.5457V48.4619L80.3638 48.4454L80.3457 48.6445ZM80.3457 52.8H68.9883V53.2H80.3457V52.8ZM69.1883 53V52.6777H68.7883V53H69.1883ZM68.9883 52.8777H70.9219V52.4777H68.9883V52.8777ZM71.1219 52.6777V38.3027H70.7219V52.6777H71.1219ZM70.9219 38.1027H68.9883V38.5027H70.9219V38.1027ZM69.1883 38.3027V37.9805H68.7883V38.3027H69.1883ZM68.9883 38.1805H80.3457V37.7805H68.9883V38.1805ZM80.1457 37.9805V42.3359H80.5457V37.9805H80.1457ZM80.3336 42.1363L80.0113 42.1558L80.0355 42.5551L80.3578 42.5356L80.3336 42.1363ZM80.2207 42.3227L79.5469 38.2699L79.1523 38.3355L79.8261 42.3883L80.2207 42.3227ZM79.3496 38.1027H71.9473V38.5027H79.3496V38.1027ZM71.7473 38.3027V44.9824H72.1473V38.3027H71.7473ZM71.9473 45.1824H75.8242V44.7824H71.9473V45.1824ZM76.0242 44.9824V42.3359H75.6242V44.9824H76.0242ZM75.8242 42.5359H76.1465V42.1359H75.8242V42.5359ZM75.9465 42.3359V47.9414H76.3465V42.3359H75.9465ZM76.1465 47.7414H75.8242V48.1414H76.1465V47.7414ZM76.0242 47.9414V45.3047H75.6242V47.9414H76.0242ZM75.8242 45.1047H71.9473V45.5047H75.8242V45.1047ZM71.7473 45.3047V52.6777H72.1473V45.3047H71.7473ZM71.9473 52.8777H79.3496V52.4777H71.9473V52.8777ZM79.5469 52.7105L80.2207 48.648L79.8261 48.5825L79.1523 52.645L79.5469 52.7105ZM80.0053 48.8144L80.3276 48.8437L80.3638 48.4454L80.0415 48.4161L80.0053 48.8144ZM80.1457 48.6445V53H80.5457V48.6445H80.1457ZM96.6152 53V53.2H96.8152V53H96.6152ZM91.7227 53H91.5227V53.2H91.7227V53ZM91.7227 52.6777V52.4777H91.5227V52.6777H91.7227ZM93.6562 52.6777V52.8777H93.8563V52.6777H93.6562ZM93.6562 45.3047H93.8563V45.1047H93.6562V45.3047ZM85.5801 45.3047V45.1047H85.3801V45.3047H85.5801ZM85.5801 52.6777H85.3801V52.8777H85.5801V52.6777ZM87.5234 52.6777H87.7234V52.4777H87.5234V52.6777ZM87.5234 53V53.2H87.7234V53H87.5234ZM82.6211 53H82.4211V53.2H82.6211V53ZM82.6211 52.6777V52.4777H82.4211V52.6777H82.6211ZM84.5547 52.6777V52.8777H84.7547V52.6777H84.5547ZM84.5547 38.3027H84.7547V38.1027H84.5547V38.3027ZM82.6211 38.3027H82.4211V38.5027H82.6211V38.3027ZM82.6211 37.9805V37.7805H82.4211V37.9805H82.6211ZM87.5234 37.9805H87.7234V37.7805H87.5234V37.9805ZM87.5234 38.3027V38.5027H87.7234V38.3027H87.5234ZM85.5801 38.3027V38.1027H85.3801V38.3027H85.5801ZM85.5801 44.9824H85.3801V45.1824H85.5801V44.9824ZM93.6562 44.9824V45.1824H93.8563V44.9824H93.6562ZM93.6562 38.3027H93.8563V38.1027H93.6562V38.3027ZM91.7227 38.3027H91.5227V38.5027H91.7227V38.3027ZM91.7227 37.9805V37.7805H91.5227V37.9805H91.7227ZM96.6152 37.9805H96.8152V37.7805H96.6152V37.9805ZM96.6152 38.3027V38.5027H96.8152V38.3027H96.6152ZM94.6816 38.3027V38.1027H94.4816V38.3027H94.6816ZM94.6816 52.6777H94.4816V52.8777H94.6816V52.6777ZM96.6152 52.6777H96.8152V52.4777H96.6152V52.6777ZM96.6152 52.8H91.7227V53.2H96.6152V52.8ZM91.9227 53V52.6777H91.5227V53H91.9227ZM91.7227 52.8777H93.6562V52.4777H91.7227V52.8777ZM93.8563 52.6777V45.3047H93.4562V52.6777H93.8563ZM93.6562 45.1047H85.5801V45.5047H93.6562V45.1047ZM85.3801 45.3047V52.6777H85.7801V45.3047H85.3801ZM85.5801 52.8777H87.5234V52.4777H85.5801V52.8777ZM87.3234 52.6777V53H87.7234V52.6777H87.3234ZM87.5234 52.8H82.6211V53.2H87.5234V52.8ZM82.8211 53V52.6777H82.4211V53H82.8211ZM82.6211 52.8777H84.5547V52.4777H82.6211V52.8777ZM84.7547 52.6777V38.3027H84.3547V52.6777H84.7547ZM84.5547 38.1027H82.6211V38.5027H84.5547V38.1027ZM82.8211 38.3027V37.9805H82.4211V38.3027H82.8211ZM82.6211 38.1805H87.5234V37.7805H82.6211V38.1805ZM87.3234 37.9805V38.3027H87.7234V37.9805H87.3234ZM87.5234 38.1027H85.5801V38.5027H87.5234V38.1027ZM85.3801 38.3027V44.9824H85.7801V38.3027H85.3801ZM85.5801 45.1824H93.6562V44.7824H85.5801V45.1824ZM93.8563 44.9824V38.3027H93.4562V44.9824H93.8563ZM93.6562 38.1027H91.7227V38.5027H93.6562V38.1027ZM91.9227 38.3027V37.9805H91.5227V38.3027H91.9227ZM91.7227 38.1805H96.6152V37.7805H91.7227V38.1805ZM96.4152 37.9805V38.3027H96.8152V37.9805H96.4152ZM96.6152 38.1027H94.6816V38.5027H96.6152V38.1027ZM94.4816 38.3027V52.6777H94.8816V38.3027H94.4816ZM94.6816 52.8777H96.6152V52.4777H94.6816V52.8777ZM96.4152 52.6777V53H96.8152V52.6777H96.4152ZM113.041 53V53.2H113.241V53H113.041ZM108.148 53H107.948V53.2H108.148V53ZM108.148 52.6777V52.4777H107.948V52.6777H108.148ZM110.082 52.6777V52.8777H110.282V52.6777H110.082ZM110.082 39.3574H110.282V38.6966L109.916 39.2465L110.082 39.3574ZM102.006 51.4766L101.839 51.3657L101.806 51.416V51.4766H102.006ZM102.006 52.6777H101.806V52.8777H102.006V52.6777ZM103.949 52.6777H104.149V52.4777H103.949V52.6777ZM103.949 53V53.2H104.149V53H103.949ZM99.0469 53H98.8469V53.2H99.0469V53ZM99.0469 52.6777V52.4777H98.8469V52.6777H99.0469ZM100.98 52.6777V52.8777H101.18V52.6777H100.98ZM100.98 38.3027H101.18V38.1027H100.98V38.3027ZM99.0469 38.3027H98.8469V38.5027H99.0469V38.3027ZM99.0469 37.9805V37.7805H98.8469V37.9805H99.0469ZM103.949 37.9805H104.149V37.7805H103.949V37.9805ZM103.949 38.3027V38.5027H104.149V38.3027H103.949ZM102.006 38.3027V38.1027H101.806V38.3027H102.006ZM102.006 50.2168H101.806V50.8776L102.172 50.3277L102.006 50.2168ZM109.945 38.3027L110.112 38.4136L110.319 38.1027H109.945V38.3027ZM108.148 38.3027H107.948V38.5027H108.148V38.3027ZM108.148 37.9805V37.7805H107.948V37.9805H108.148ZM113.041 37.9805H113.241V37.7805H113.041V37.9805ZM113.041 38.3027V38.5027H113.241V38.3027H113.041ZM111.107 38.3027V38.1027H110.907V38.3027H111.107ZM111.107 52.6777H110.907V52.8777H111.107V52.6777ZM113.041 52.6777H113.241V52.4777H113.041V52.6777ZM113.041 52.8H108.148V53.2H113.041V52.8ZM108.348 53V52.6777H107.948V53H108.348ZM108.148 52.8777H110.082V52.4777H108.148V52.8777ZM110.282 52.6777V39.3574H109.882V52.6777H110.282ZM109.916 39.2465L101.839 51.3657L102.172 51.5875L110.248 39.4683L109.916 39.2465ZM101.806 51.4766V52.6777H102.206V51.4766H101.806ZM102.006 52.8777H103.949V52.4777H102.006V52.8777ZM103.749 52.6777V53H104.149V52.6777H103.749ZM103.949 52.8H99.0469V53.2H103.949V52.8ZM99.2469 53V52.6777H98.8469V53H99.2469ZM99.0469 52.8777H100.98V52.4777H99.0469V52.8777ZM101.18 52.6777V38.3027H100.78V52.6777H101.18ZM100.98 38.1027H99.0469V38.5027H100.98V38.1027ZM99.2469 38.3027V37.9805H98.8469V38.3027H99.2469ZM99.0469 38.1805H103.949V37.7805H99.0469V38.1805ZM103.749 37.9805V38.3027H104.149V37.9805H103.749ZM103.949 38.1027H102.006V38.5027H103.949V38.1027ZM101.806 38.3027V50.2168H102.206V38.3027H101.806ZM102.172 50.3277L110.112 38.4136L109.779 38.1918L101.839 50.1059L102.172 50.3277ZM109.945 38.1027H108.148V38.5027H109.945V38.1027ZM108.348 38.3027V37.9805H107.948V38.3027H108.348ZM108.148 38.1805H113.041V37.7805H108.148V38.1805ZM112.841 37.9805V38.3027H113.241V37.9805H112.841ZM113.041 38.1027H111.107V38.5027H113.041V38.1027ZM110.907 38.3027V52.6777H111.307V38.3027H110.907ZM111.107 52.8777H113.041V52.4777H111.107V52.8777ZM112.841 52.6777V53H113.241V52.6777H112.841ZM128.773 53V53.2H128.973V53H128.773ZM124.574 53H124.374V53.2H124.574V53ZM124.574 52.6777V52.4777H124.374V52.6777H124.574ZM126.371 52.6777V52.8777H126.745L126.537 52.5667L126.371 52.6777ZM121.049 44.6992L121.215 44.5882L121.08 44.3861L120.908 44.5573L121.049 44.6992ZM118.432 47.2969L118.291 47.1549L118.232 47.2136V47.2969H118.432ZM118.432 52.6777H118.232V52.8777H118.432V52.6777ZM120.375 52.6777H120.575V52.4777H120.375V52.6777ZM120.375 53V53.2H120.575V53H120.375ZM115.473 53H115.273V53.2H115.473V53ZM115.473 52.6777V52.4777H115.273V52.6777H115.473ZM117.406 52.6777V52.8777H117.606V52.6777H117.406ZM117.406 38.3027H117.606V38.1027H117.406V38.3027ZM115.473 38.3027H115.273V38.5027H115.473V38.3027ZM115.473 37.9805V37.7805H115.273V37.9805H115.473ZM120.375 37.9805H120.575V37.7805H120.375V37.9805ZM120.375 38.3027V38.5027H120.575V38.3027H120.375ZM118.432 38.3027V38.1027H118.232V38.3027H118.432ZM118.432 46.8574H118.232V47.3403L118.573 46.9988L118.432 46.8574ZM126.986 38.3027L127.128 38.4442L127.469 38.1027H126.986V38.3027ZM124.574 38.3027H124.374V38.5027H124.574V38.3027ZM124.574 37.9805V37.7805H124.374V37.9805H124.574ZM128.773 37.9805H128.973V37.7805H128.773V37.9805ZM128.773 38.3027V38.5027H128.973V38.3027H128.773ZM127.426 38.3027V38.1027H127.343L127.284 38.1613L127.426 38.3027ZM121.693 44.0352L121.552 43.8937L121.436 44.0096L121.527 44.146L121.693 44.0352ZM127.445 52.6777L127.279 52.7885L127.338 52.8777H127.445V52.6777ZM128.773 52.6777H128.973V52.4777H128.773V52.6777ZM128.773 52.8H124.574V53.2H128.773V52.8ZM124.774 53V52.6777H124.374V53H124.774ZM124.574 52.8777H126.371V52.4777H124.574V52.8777ZM126.537 52.5667L121.215 44.5882L120.882 44.8102L126.205 52.7887L126.537 52.5667ZM120.908 44.5573L118.291 47.1549L118.573 47.4388L121.19 44.8412L120.908 44.5573ZM118.232 47.2969V52.6777H118.632V47.2969H118.232ZM118.432 52.8777H120.375V52.4777H118.432V52.8777ZM120.175 52.6777V53H120.575V52.6777H120.175ZM120.375 52.8H115.473V53.2H120.375V52.8ZM115.673 53V52.6777H115.273V53H115.673ZM115.473 52.8777H117.406V52.4777H115.473V52.8777ZM117.606 52.6777V38.3027H117.206V52.6777H117.606ZM117.406 38.1027H115.473V38.5027H117.406V38.1027ZM115.673 38.3027V37.9805H115.273V38.3027H115.673ZM115.473 38.1805H120.375V37.7805H115.473V38.1805ZM120.175 37.9805V38.3027H120.575V37.9805H120.175ZM120.375 38.1027H118.432V38.5027H120.375V38.1027ZM118.232 38.3027V46.8574H118.632V38.3027H118.232ZM118.573 46.9988L127.128 38.4442L126.845 38.1613L118.29 46.716L118.573 46.9988ZM126.986 38.1027H124.574V38.5027H126.986V38.1027ZM124.774 38.3027V37.9805H124.374V38.3027H124.774ZM124.574 38.1805H128.773V37.7805H124.574V38.1805ZM128.573 37.9805V38.3027H128.973V37.9805H128.573ZM128.773 38.1027H127.426V38.5027H128.773V38.1027ZM127.284 38.1613L121.552 43.8937L121.835 44.1766L127.567 38.4442L127.284 38.1613ZM121.527 44.146L127.279 52.7885L127.612 52.5669L121.86 43.9243L121.527 44.146ZM127.445 52.8777H128.773V52.4777H127.445V52.8777ZM128.573 52.6777V53H128.973V52.6777H128.573ZM141.85 43.3223L141.66 43.3853L142.05 43.3223H141.85ZM140.854 40.3242L141.043 40.2612L141.029 40.2166L140.995 40.1833L140.854 40.3242ZM139.516 38.9766L139.658 38.8357L139.624 38.8017L139.578 38.7866L139.516 38.9766ZM137.475 38.3027L137.537 38.1128L137.507 38.1027H137.475V38.3027ZM136.137 38.3027V38.1027H136.091L136.049 38.1228L136.137 38.3027ZM134.789 38.9766L134.698 38.7987L134.669 38.8132L134.647 38.8356L134.789 38.9766ZM133.432 40.3438L133.29 40.2028L133.268 40.2246L133.254 40.2518L133.432 40.3438ZM132.729 41.7012L132.551 41.6092L132.544 41.6231L132.539 41.6379L132.729 41.7012ZM132.65 41.9355L132.461 41.8723L132.459 41.8791L132.65 41.9355ZM132.504 42.3848L132.315 42.3196L132.314 42.3227L132.504 42.3848ZM132.055 43.7617L131.865 43.6997L131.855 43.7299V43.7617H132.055ZM132.055 47.2188H131.855V47.2505L131.865 47.2808L132.055 47.2188ZM132.504 48.5957L132.696 48.5382L132.694 48.5337L132.504 48.5957ZM132.729 49.2793L132.537 49.3381L132.539 49.3425L132.729 49.2793ZM133.432 50.6367L133.254 50.7293L133.268 50.7561L133.29 50.7776L133.432 50.6367ZM134.789 52.0039L134.647 52.1448L134.669 52.1667L134.696 52.181L134.789 52.0039ZM136.137 52.6777L136.05 52.858L136.091 52.8777H136.137V52.6777ZM137.475 52.6777V52.8777H137.505L137.534 52.8686L137.475 52.6777ZM138.129 52.4629L138.192 52.6526L138.194 52.6519L138.129 52.4629ZM139.516 52.0039L139.577 52.1943L139.621 52.18L139.655 52.1477L139.516 52.0039ZM140.854 50.6367L140.999 50.7737L141.019 50.753L141.032 50.7277L140.854 50.6367ZM141.557 49.2598L141.656 49.0861L141.474 48.9821L141.379 49.1688L141.557 49.2598ZM141.83 49.416L142.01 49.5035L142.092 49.3352L141.929 49.2424L141.83 49.416ZM141.137 50.8418L141.277 50.9846L141.301 50.9604L141.317 50.9293L141.137 50.8418ZM139.672 52.2773L139.735 52.467L139.779 52.4524L139.812 52.4202L139.672 52.2773ZM137.514 53V53.2H137.546L137.577 53.1897L137.514 53ZM136.068 53L136.009 53.1909L136.038 53.2H136.068V53ZM135.375 52.7754L135.31 52.9645L135.313 52.9655L135.375 52.7754ZM133.91 52.2773L133.77 52.4197L133.803 52.4521L133.846 52.4669L133.91 52.2773ZM132.455 50.8418L132.276 50.9312L132.291 50.9609L132.315 50.9842L132.455 50.8418ZM132.377 50.6855L132.195 50.7694L132.198 50.775L132.377 50.6855ZM132.221 50.3633L132.041 50.4505L132.042 50.4527L132.221 50.3633ZM131.752 49.3965L131.562 49.4601L131.566 49.4722L131.572 49.4837L131.752 49.3965ZM131.273 47.9707L131.463 47.907L131.459 47.8964L131.273 47.9707ZM131.117 47.6191L131.299 47.5353L131.298 47.5335L131.117 47.6191ZM131.117 43.3613L130.938 43.2718L130.935 43.2793L131.117 43.3613ZM131.215 43.1367L131.032 43.0555L131.028 43.0643L131.025 43.0735L131.215 43.1367ZM131.273 43.0098L131.452 43.0992L131.459 43.0867L131.463 43.0734L131.273 43.0098ZM131.752 41.584L131.572 41.4967L131.566 41.5082L131.562 41.5203L131.752 41.584ZM132.221 40.6172L132.401 40.7044L132.406 40.6928L132.41 40.6804L132.221 40.6172ZM132.455 40.1387L132.315 39.9963L132.294 40.0163L132.28 40.0411L132.455 40.1387ZM133.91 38.7031L133.847 38.5135L133.803 38.5282L133.77 38.5608L133.91 38.7031ZM136.068 37.9805V37.7805H136.036L136.005 37.7908L136.068 37.9805ZM137.514 37.9805L137.577 37.7908L137.546 37.7805H137.514V37.9805ZM139.672 38.7031L139.812 38.5606L139.779 38.5282L139.735 38.5135L139.672 38.7031ZM140.932 39.9434L140.791 40.0859L141.021 40.3117L141.122 40.006L140.932 39.9434ZM141.85 37.1602H142.05L141.66 37.0975L141.85 37.1602ZM142.039 43.2592L141.043 40.2612L140.664 40.3873L141.66 43.3853L142.039 43.2592ZM140.995 40.1833L139.658 38.8357L139.374 39.1175L140.712 40.4651L140.995 40.1833ZM139.578 38.7866L137.537 38.1128L137.412 38.4927L139.453 39.1665L139.578 38.7866ZM137.475 38.1027H136.137V38.5027H137.475V38.1027ZM136.049 38.1228C135.618 38.3318 135.168 38.5572 134.698 38.7987L134.88 39.1544C135.348 38.9142 135.796 38.6903 136.224 38.4827L136.049 38.1228ZM134.647 38.8356L133.29 40.2028L133.574 40.4847L134.931 39.1175L134.647 38.8356ZM133.254 40.2518L132.551 41.6092L132.906 41.7932L133.609 40.4357L133.254 40.2518ZM132.539 41.6379C132.539 41.6383 132.539 41.6384 132.538 41.6388C132.538 41.6389 132.538 41.639 132.538 41.6391C132.538 41.6392 132.538 41.6392 132.538 41.6393C132.538 41.64 132.538 41.6391 132.538 41.6398C132.538 41.6411 132.538 41.6404 132.538 41.6417C132.535 41.6478 132.538 41.6396 132.536 41.6457C132.535 41.6485 132.536 41.647 132.535 41.6499C132.535 41.6505 132.535 41.6499 132.535 41.6505C132.534 41.6511 132.535 41.6504 132.534 41.651C132.534 41.6523 132.534 41.6509 132.534 41.6521C132.534 41.6529 132.534 41.6525 132.534 41.6533C132.534 41.6534 132.534 41.6537 132.533 41.6538C132.533 41.654 132.533 41.6543 132.533 41.6544C132.531 41.6625 132.53 41.6652 132.527 41.6745C132.525 41.6795 132.525 41.6807 132.523 41.686C132.523 41.6867 132.522 41.6868 132.522 41.6875C132.522 41.6885 132.522 41.688 132.522 41.689C132.521 41.691 132.521 41.69 132.521 41.6921C132.52 41.6938 132.521 41.6919 132.52 41.6936C132.52 41.6947 132.52 41.6941 132.52 41.6952C132.519 41.6962 132.52 41.6949 132.519 41.696C132.519 41.6961 132.519 41.6962 132.519 41.6964C132.519 41.6965 132.519 41.6966 132.519 41.6968C132.519 41.6971 132.519 41.698 132.519 41.6984C132.519 41.6985 132.519 41.6986 132.519 41.6988C132.518 41.6989 132.518 41.699 132.518 41.6992C132.518 41.6993 132.518 41.6994 132.518 41.6996C132.518 41.6997 132.518 41.6998 132.518 41.7C132.518 41.7007 132.518 41.7009 132.518 41.7016C132.517 41.7021 132.517 41.7019 132.517 41.7024C132.517 41.7025 132.517 41.7027 132.517 41.7028C132.517 41.7029 132.517 41.7031 132.517 41.7032C132.517 41.7034 132.517 41.7035 132.517 41.7036C132.517 41.7038 132.517 41.7039 132.517 41.704C132.517 41.7044 132.517 41.7045 132.516 41.7049C132.514 41.7122 132.517 41.7042 132.514 41.7116C132.514 41.7124 132.513 41.7143 132.513 41.7151C132.512 41.717 132.513 41.7149 132.512 41.7168C132.512 41.717 132.512 41.7175 132.512 41.7177C132.512 41.7179 132.512 41.718 132.512 41.7182C132.512 41.7183 132.512 41.7185 132.512 41.7186C132.512 41.7188 132.512 41.7189 132.512 41.7191C132.512 41.7192 132.512 41.7193 132.512 41.7195C132.511 41.7207 132.512 41.7192 132.511 41.7204C132.511 41.7205 132.511 41.7207 132.511 41.7208C132.511 41.721 132.511 41.7211 132.511 41.7213C132.511 41.7214 132.511 41.7216 132.511 41.7217C132.511 41.7219 132.511 41.722 132.511 41.7222C132.51 41.7238 132.51 41.7242 132.509 41.7258C132.509 41.7283 132.509 41.727 132.508 41.7295C132.508 41.7297 132.508 41.7298 132.508 41.73C132.508 41.7301 132.508 41.7303 132.508 41.7304C132.508 41.7309 132.508 41.731 132.508 41.7314C132.507 41.733 132.508 41.7316 132.507 41.7333C132.504 41.7418 132.507 41.7323 132.504 41.7409C132.499 41.7582 132.505 41.7393 132.499 41.7569C132.498 41.7605 132.495 41.77 132.493 41.7739C132.489 41.7874 132.495 41.7691 132.491 41.7827C132.49 41.7847 132.49 41.7852 132.489 41.7872C132.488 41.7892 132.489 41.7874 132.488 41.7895C132.488 41.79 132.488 41.7901 132.488 41.7906C132.488 41.7908 132.488 41.791 132.488 41.7912C132.488 41.7914 132.488 41.7915 132.488 41.7917C132.485 41.7999 132.484 41.8021 132.481 41.8105C132.481 41.8126 132.48 41.8132 132.48 41.8153C132.48 41.8155 132.48 41.8157 132.479 41.8159C132.479 41.8161 132.479 41.8164 132.479 41.8166C132.479 41.8168 132.479 41.817 132.479 41.8172C132.479 41.8174 132.479 41.8176 132.479 41.8178C132.478 41.8205 132.479 41.8175 132.478 41.8202C132.476 41.8257 132.478 41.8197 132.476 41.8252C132.476 41.8263 132.475 41.8291 132.475 41.8302C132.472 41.8369 132.474 41.8336 132.471 41.8404C132.469 41.8473 132.47 41.8438 132.468 41.8508C132.463 41.8648 132.465 41.858 132.461 41.8723L132.84 41.9988C132.84 41.9985 132.84 41.9977 132.841 41.9974C132.841 41.9972 132.841 41.997 132.841 41.9967C132.841 41.9965 132.841 41.9963 132.841 41.9961C132.841 41.9958 132.841 41.9956 132.841 41.9954C132.841 41.9951 132.841 41.9949 132.841 41.9947C132.842 41.9932 132.841 41.9948 132.842 41.9933C132.843 41.9897 132.843 41.9915 132.844 41.9879C132.846 41.9808 132.845 41.9843 132.847 41.9773C132.852 41.9634 132.85 41.9703 132.854 41.9567C132.863 41.9305 132.859 41.9432 132.867 41.9182C132.871 41.9062 132.869 41.9121 132.873 41.9004C132.875 41.8946 132.874 41.8975 132.876 41.8918C132.876 41.8911 132.876 41.8914 132.876 41.8907C132.876 41.8903 132.876 41.8901 132.876 41.8897C132.877 41.8895 132.877 41.8893 132.877 41.8892C132.877 41.889 132.877 41.8888 132.877 41.8886C132.877 41.8879 132.877 41.8883 132.877 41.8876C132.878 41.8843 132.877 41.8887 132.878 41.8855C132.878 41.8853 132.878 41.8852 132.878 41.885C132.878 41.8848 132.878 41.8846 132.878 41.8845C132.878 41.8843 132.878 41.8841 132.878 41.884C132.878 41.8838 132.879 41.8836 132.879 41.8834C132.88 41.8798 132.88 41.8789 132.881 41.8753C132.883 41.8709 132.881 41.8758 132.883 41.8713C132.883 41.8702 132.883 41.8714 132.883 41.8703C132.883 41.8695 132.883 41.8702 132.883 41.8694C132.883 41.8691 132.884 41.8686 132.884 41.8684C132.884 41.8682 132.884 41.8681 132.884 41.8679C132.884 41.8677 132.884 41.8676 132.884 41.8674C132.887 41.8572 132.886 41.8622 132.889 41.8523C132.898 41.8263 132.899 41.8222 132.906 41.801C132.907 41.7995 132.906 41.8012 132.907 41.7997C132.907 41.7985 132.907 41.7995 132.907 41.7983C132.908 41.7965 132.907 41.7974 132.908 41.7957C132.909 41.7922 132.908 41.7965 132.909 41.7931C132.909 41.7929 132.909 41.7928 132.909 41.7927C132.909 41.7926 132.909 41.7925 132.909 41.7924C132.909 41.7923 132.909 41.7922 132.909 41.7921C132.909 41.792 132.909 41.7919 132.909 41.7918C132.909 41.7917 132.909 41.7916 132.909 41.7915C132.909 41.7914 132.909 41.7912 132.909 41.7911C132.909 41.791 132.909 41.7909 132.909 41.7908C132.909 41.7907 132.91 41.7906 132.91 41.7905C132.912 41.7818 132.91 41.7893 132.913 41.7809C132.916 41.7707 132.912 41.7821 132.916 41.7722C132.917 41.767 132.917 41.7693 132.918 41.7644L132.539 41.6379ZM132.459 41.8791C132.427 41.9855 132.38 42.1319 132.315 42.3196L132.693 42.45C132.758 42.26 132.808 42.107 132.842 41.992L132.459 41.8791ZM132.314 42.3227L131.865 43.6997L132.245 43.8237L132.694 42.4468L132.314 42.3227ZM131.855 43.7617V47.2188H132.255V43.7617H131.855ZM131.865 47.2808L132.314 48.6577L132.694 48.5337L132.245 47.1567L131.865 47.2808ZM132.312 48.6532C132.333 48.7227 132.364 48.8141 132.403 48.9259L132.78 48.7928C132.742 48.6833 132.714 48.5989 132.695 48.5382L132.312 48.6532ZM132.403 48.9259C132.441 49.0331 132.486 49.1703 132.537 49.3381L132.92 49.2205C132.867 49.0498 132.821 48.907 132.78 48.7928L132.403 48.9259ZM132.539 49.3425C132.544 49.3579 132.551 49.3733 132.552 49.3739C132.555 49.38 132.558 49.3875 132.563 49.3959C132.571 49.4128 132.583 49.4363 132.598 49.466C132.628 49.5256 132.673 49.6121 132.732 49.7253C132.849 49.9518 133.023 50.2865 133.254 50.7293L133.609 50.5442C133.378 50.1015 133.204 49.7673 133.087 49.5413C133.028 49.4283 132.984 49.3427 132.954 49.2842C132.939 49.2549 132.928 49.2329 132.921 49.2179C132.917 49.2103 132.915 49.2053 132.913 49.2022C132.909 49.1935 132.914 49.2031 132.918 49.2161L132.539 49.3425ZM133.29 50.7776L134.647 52.1448L134.931 51.863L133.574 50.4958L133.29 50.7776ZM134.696 52.181C135.096 52.3907 135.547 52.6163 136.05 52.858L136.223 52.4975C135.724 52.2574 135.277 52.0338 134.882 51.8268L134.696 52.181ZM136.137 52.8777H137.475V52.4777H136.137V52.8777ZM137.534 52.8686C137.641 52.8354 137.861 52.7632 138.192 52.6526L138.066 52.2732C137.733 52.384 137.517 52.455 137.415 52.4868L137.534 52.8686ZM138.194 52.6519C138.531 52.5354 138.992 52.3829 139.577 52.1943L139.454 51.8135C138.868 52.0025 138.404 52.156 138.063 52.2739L138.194 52.6519ZM139.655 52.1477C140.042 51.7737 140.49 51.3156 140.999 50.7737L140.708 50.4998C140.201 51.0386 139.758 51.4919 139.377 51.8601L139.655 52.1477ZM141.032 50.7277L141.735 49.3507L141.379 49.1688L140.675 50.5458L141.032 50.7277ZM141.457 49.4334L141.731 49.5897L141.929 49.2424L141.656 49.0861L141.457 49.4334ZM141.65 49.3285L140.957 50.7543L141.317 50.9293L142.01 49.5035L141.65 49.3285ZM140.997 50.699L139.532 52.1345L139.812 52.4202L141.277 50.9846L140.997 50.699ZM139.608 52.0877L137.45 52.8103L137.577 53.1897L139.735 52.467L139.608 52.0877ZM137.514 52.8H136.068V53.2H137.514V52.8ZM136.128 52.8091C136.025 52.777 135.796 52.7026 135.437 52.5853L135.313 52.9655C135.671 53.0825 135.903 53.1579 136.009 53.1909L136.128 52.8091ZM135.44 52.5864C135.082 52.4624 134.593 52.2962 133.974 52.0878L133.846 52.4669C134.465 52.6751 134.952 52.841 135.31 52.9644L135.44 52.5864ZM134.051 52.135L132.596 50.6994L132.315 50.9842L133.77 52.4197L134.051 52.135ZM132.634 50.7524C132.634 50.7524 132.631 50.7474 132.631 50.7472C132.63 50.7446 132.631 50.7469 132.63 50.7443C132.63 50.7443 132.629 50.7429 132.629 50.7429C132.629 50.7428 132.629 50.7428 132.629 50.7427C132.629 50.7426 132.629 50.7426 132.629 50.7425C132.629 50.7424 132.629 50.7424 132.629 50.7423C132.629 50.7423 132.629 50.7422 132.629 50.7421L132.629 50.7417C132.628 50.7414 132.629 50.7417 132.628 50.7414C132.628 50.7414 132.622 50.7288 132.622 50.7279C132.62 50.7246 132.62 50.7238 132.618 50.7203C132.616 50.7168 132.618 50.7198 132.616 50.7163C132.614 50.7125 132.616 50.7159 132.614 50.7121C132.613 50.7111 132.613 50.7109 132.613 50.7099C132.612 50.7089 132.612 50.7087 132.612 50.7077C132.612 50.7077 132.611 50.7066 132.611 50.7066C132.611 50.7065 132.611 50.7064 132.611 50.7063C132.611 50.7062 132.611 50.7061 132.611 50.7061C132.611 50.706 132.611 50.7059 132.611 50.7058C132.611 50.7057 132.611 50.7056 132.611 50.7055C132.61 50.7035 132.61 50.7052 132.609 50.7032C132.609 50.7022 132.609 50.7031 132.609 50.7021C132.609 50.7016 132.609 50.702 132.609 50.7015C132.608 50.7012 132.608 50.7012 132.608 50.7009C132.608 50.7008 132.608 50.7007 132.608 50.7006C132.608 50.7005 132.608 50.7004 132.608 50.7003C132.608 50.6998 132.608 50.7003 132.608 50.6997C132.608 50.6996 132.608 50.6995 132.608 50.6995C132.607 50.6994 132.607 50.6993 132.607 50.6992C132.607 50.6991 132.607 50.699 132.607 50.6989C132.607 50.6988 132.607 50.6987 132.607 50.6986C132.607 50.6985 132.607 50.6984 132.607 50.6983C132.607 50.6982 132.607 50.6981 132.607 50.698C132.607 50.6979 132.607 50.6978 132.607 50.6977C132.607 50.6976 132.607 50.6975 132.606 50.6974C132.606 50.6963 132.606 50.6972 132.606 50.6962C132.606 50.6956 132.606 50.6955 132.605 50.695C132.605 50.6949 132.605 50.6948 132.605 50.6947C132.605 50.6946 132.605 50.6945 132.605 50.6944C132.605 50.6943 132.605 50.6942 132.605 50.6941C132.605 50.694 132.605 50.6939 132.605 50.6938C132.602 50.6894 132.604 50.6932 132.602 50.6888C132.601 50.6865 132.601 50.686 132.6 50.6837C132.597 50.6791 132.597 50.6778 132.594 50.673C132.589 50.6629 132.594 50.672 132.589 50.6617C132.587 50.6591 132.587 50.6585 132.586 50.6558C132.584 50.6532 132.584 50.6525 132.583 50.6498C132.572 50.6281 132.568 50.6211 132.556 50.5961L132.198 50.775C132.241 50.8618 132.259 50.8965 132.276 50.9312L132.634 50.7524ZM132.559 50.6017C132.518 50.5145 132.465 50.405 132.4 50.2738L132.042 50.4527C132.106 50.582 132.158 50.6874 132.195 50.7694L132.559 50.6017ZM132.401 50.276L131.932 49.3092L131.572 49.4837L132.041 50.4505L132.401 50.276ZM131.942 49.3328L131.463 47.9071L131.084 48.0343L131.562 49.4601L131.942 49.3328ZM131.459 47.8964C131.445 47.8604 131.424 47.8121 131.398 47.7528L131.032 47.9152C131.058 47.9731 131.076 48.0159 131.088 48.045L131.459 47.8964ZM131.398 47.7528C131.371 47.693 131.338 47.6205 131.299 47.5353L130.936 47.703C130.974 47.7871 131.007 47.8578 131.032 47.9152L131.398 47.7528ZM131.298 47.5335C131.25 47.4321 131.229 47.3408 131.229 47.2578H130.829C130.829 47.4092 130.867 47.5588 130.936 47.7048L131.298 47.5335ZM131.229 47.2578V43.7227H130.829V47.2578H131.229ZM131.229 43.7227C131.229 43.6472 131.249 43.555 131.3 43.4434L130.935 43.2793C130.868 43.4281 130.829 43.5767 130.829 43.7227H131.229ZM131.296 43.4508C131.344 43.3558 131.381 43.2714 131.405 43.2L131.025 43.0735C131.01 43.1192 130.982 43.1845 130.938 43.2719L131.296 43.4508ZM131.398 43.2179C131.424 43.1597 131.441 43.1209 131.452 43.0992L131.095 42.9203C131.079 42.9507 131.058 42.9966 131.032 43.0555L131.398 43.2179ZM131.463 43.0734L131.942 41.6476L131.562 41.5203L131.084 42.9461L131.463 43.0734ZM131.932 41.6712L132.401 40.7044L132.041 40.5299L131.572 41.4967L131.932 41.6712ZM132.41 40.6804C132.436 40.6026 132.506 40.4579 132.63 40.2362L132.28 40.0411C132.157 40.2621 132.07 40.4364 132.031 40.5539L132.41 40.6804ZM132.596 40.281L134.051 38.8455L133.77 38.5608L132.315 39.9963L132.596 40.281ZM133.974 38.8928L136.132 38.1701L136.005 37.7908L133.847 38.5135L133.974 38.8928ZM136.068 38.1805H137.514V37.7805H136.068V38.1805ZM137.45 38.1701L139.608 38.8928L139.735 38.5135L137.577 37.7908L137.45 38.1701ZM139.532 38.8456L140.791 40.0859L141.072 39.8008L139.812 38.5606L139.532 38.8456ZM141.122 40.006L142.04 37.2228L141.66 37.0975L140.742 39.8807L141.122 40.006ZM141.65 37.1602V43.3223H142.05V37.1602H141.65Z" fill="#CDB9A7"/>
</svg>
