<svg width="30" height="30" viewBox="0 0 30 30" fill="none" xmlns="http://www.w3.org/2000/svg">
<g clip-path="url(#clip0_249_1073)">
<path d="M15 30C23.2843 30 30 23.2843 30 15C30 6.71573 23.2843 0 15 0C6.71573 0 0 6.71573 0 15C0 23.2843 6.71573 30 15 30Z" fill="#C3AA94"/>
<path d="M22.3021 8.90669C22.2444 8.74003 22.1755 8.69336 22.0688 8.65336C21.8355 8.56447 21.4399 8.6978 21.4399 8.6978C21.4399 8.6978 7.41991 13.7356 6.61991 14.2956C6.44657 14.4156 6.38879 14.4845 6.36213 14.5667C6.22435 14.9645 6.65546 15.14 6.65546 15.14L10.2688 16.3178C10.2688 16.3178 10.4043 16.3378 10.451 16.3067C11.2732 15.7867 18.7221 11.0845 19.151 10.9267C19.2199 10.9067 19.2688 10.9289 19.2555 10.9756C19.0844 11.58 12.6155 17.3289 12.6155 17.3289C12.6155 17.3289 12.591 17.36 12.5755 17.3956L12.5666 17.3911L12.2288 20.9756C12.2288 20.9756 12.0866 22.0734 13.1866 20.9756C13.9621 20.2 14.711 19.5534 15.0866 19.2378C16.3288 20.0956 17.6666 21.0445 18.2421 21.54C18.531 21.7889 18.7755 21.8289 18.9732 21.8222C19.5199 21.8022 19.6732 21.2 19.6732 21.2C19.6732 21.2 22.2288 10.9178 22.3132 9.54003C22.3221 9.40447 22.3332 9.32003 22.3332 9.22669C22.3355 9.0978 22.3221 8.96669 22.3021 8.90669Z" fill="white"/>
</g>
<defs>
<clipPath id="clip0_249_1073">
<rect width="30" height="30" fill="white"/>
</clipPath>
</defs>
</svg>
