<svg width="30" height="30" viewBox="0 0 30 30" fill="none" xmlns="http://www.w3.org/2000/svg">
<g clip-path="url(#clip0_249_1077)">
<path d="M25.6064 25.6065C31.4642 19.7487 31.4642 10.2513 25.6064 4.3935C19.7486 -1.46431 10.2512 -1.46431 4.39337 4.3935C-1.46444 10.2513 -1.46444 19.7487 4.39337 25.6065C10.2512 31.4643 19.7486 31.4643 25.6064 25.6065Z" fill="#C3AA94"/>
<path d="M5.98219 10.3984C6.82761 10.3984 8.63261 10.3984 9.23903 10.3984C9.36388 10.3984 9.47803 10.4734 9.53154 10.5875C10.2806 12.2141 11.1903 13.6874 12.289 14.9858C12.3817 15.1392 12.61 15.1214 12.6814 14.9573C13.0238 14.1226 13.6588 12.0929 12.4317 10.6482C12.3211 10.5197 12.3674 10.3164 12.5208 10.2522C13.7622 9.73495 14.9786 9.66004 16.1594 10.188C16.4091 10.2986 16.5696 10.5447 16.5696 10.8194L16.8478 15.0001C16.8478 15.1856 17.0191 15.3354 17.201 15.2962C18.5636 15.0072 19.3663 12.9668 20.1582 10.8372C20.2545 10.5732 20.5042 10.3984 20.7824 10.3984H23.7824C24.0286 10.3984 24.2248 10.616 24.182 10.8586C23.9001 12.3711 22.3805 14.3295 21.585 15.2712C21.3104 15.5958 21.3068 16.0738 21.5815 16.3984L24.264 19.5946C24.4566 19.8229 24.2925 20.1725 23.9929 20.1725H20.5969C20.3187 20.1725 20.0512 20.0548 19.8621 19.8515L17.4864 17.8753C17.3615 17.7397 17.1296 17.6933 17.0155 17.8325C16.723 18.1892 16.7444 18.6315 16.6053 19.6339C16.5625 19.9478 16.2806 20.1725 15.9632 20.1725H13.6409C13.3092 20.1725 12.9846 20.1048 12.6849 19.9621C11.3544 19.3307 7.71227 17.0905 5.66828 10.8265C5.6005 10.616 5.76102 10.3984 5.98219 10.3984Z" fill="white"/>
</g>
<defs>
<clipPath id="clip0_249_1077">
<rect width="30" height="30" fill="white"/>
</clipPath>
</defs>
</svg>
